<svg width="40" height="40" viewBox="0 0 40 40" fill="none" xmlns="http://www.w3.org/2000/svg">
<mask id="mask0_1_141" style="mask-type:alpha" maskUnits="userSpaceOnUse" x="0" y="0" width="40" height="40">
<rect width="40" height="40" fill="#D9D9D9"/>
</mask>
<g mask="url(#mask0_1_141)">
<path d="M20 36.6667C16.1575 35.75 12.9746 33.5625 10.4513 30.1042C7.92822 26.6458 6.66669 22.7222 6.66669 18.3333V8.30542L20 3.30542L33.3334 8.30542V18.9583C32.8981 18.7547 32.4397 18.5718 31.9584 18.4096C31.477 18.2476 31.0093 18.1343 30.5554 18.0696V10.25L20 6.33334L9.4446 10.25V18.3333C9.4446 20.1758 9.72933 21.9074 10.2988 23.5279C10.8682 25.1482 11.6089 26.6042 12.5209 27.8958C13.4328 29.1875 14.4629 30.2963 15.6113 31.2221C16.7593 32.1482 17.9121 32.852 19.0696 33.3333C19.2824 33.852 19.5832 34.3843 19.9721 34.9304C20.361 35.4768 20.736 35.9306 21.0971 36.2917C20.9213 36.3842 20.7385 36.456 20.5488 36.5071C20.3588 36.5579 20.1759 36.6111 20 36.6667ZM28.6804 36.6667C26.4768 36.6667 24.5949 35.882 23.0346 34.3125C21.4746 32.7431 20.6946 30.8704 20.6946 28.6946C20.6946 26.4735 21.4746 24.5803 23.0346 23.015C24.5946 21.4494 26.4813 20.6667 28.6946 20.6667C30.889 20.6667 32.771 21.4494 34.3404 23.015C35.9099 24.5803 36.6946 26.4735 36.6946 28.6946C36.6946 30.8704 35.9099 32.7431 34.3404 34.3125C32.771 35.882 30.8843 36.6667 28.6804 36.6667ZM28 33.3333H29.4721V29.4446H33.3613V27.9721H29.4721V24.0833H28V27.9721H24.1113V29.4446H28V33.3333Z" fill="white"/>
</g>
</svg>
