<svg width="20" height="20" viewBox="0 0 20 20" fill="none" xmlns="http://www.w3.org/2000/svg">
<mask id="mask0_1_1026" style="mask-type:alpha" maskUnits="userSpaceOnUse" x="0" y="0" width="20" height="20">
<rect width="20" height="20" fill="#D9D9D9"/>
</mask>
<g mask="url(#mask0_1_1026)">
<path d="M3 17V6H6V3H13.5V9H17V17H11V14H9V17H3ZM4.5 15.5H6V14H4.5V15.5ZM4.5 12.25H6V10.75H4.5V12.25ZM4.5 9H6V7.5H4.5V9ZM7.5 12.25H9V10.75H7.5V12.25ZM7.5 9H9V7.5H7.5V9ZM7.5 6H9V4.5H7.5V6ZM10.5 12.25H12V10.75H10.5V12.25ZM10.5 9H12V7.5H10.5V9ZM10.5 6H12V4.5H10.5V6ZM14 15.5H15.5V14H14V15.5ZM14 12.25H15.5V10.75H14V12.25Z" fill="#1C1B1F"/>
</g>
</svg>
