<svg width="24" height="24" viewBox="0 0 24 24" fill="none" xmlns="http://www.w3.org/2000/svg">
<mask id="mask0_1_1059" style="mask-type:alpha" maskUnits="userSpaceOnUse" x="0" y="0" width="24" height="24">
<rect width="24" height="24" fill="#D9D9D9"/>
</mask>
<g mask="url(#mask0_1_1059)">
<path d="M1 16V9.99998C1 9.44998 1.19583 8.97914 1.5875 8.58748C1.97917 8.19581 2.45 7.99998 3 7.99998H5C5.55 7.99998 6.02083 8.19581 6.4125 8.58748C6.80417 8.97914 7 9.44998 7 9.99998V16H5V14H3V16H1ZM3 12H5V9.99998H3V12ZM9 16V7.99998H13C13.55 7.99998 14.0208 8.19581 14.4125 8.58748C14.8042 8.97914 15 9.44998 15 9.99998V14C15 14.55 14.8042 15.0208 14.4125 15.4125C14.0208 15.8041 13.55 16 13 16H9ZM11 14H13V9.99998H11V14ZM17.85 14.8L16.45 13.375C16.6333 13.1916 16.7708 12.9833 16.8625 12.75C16.9542 12.5166 17 12.2666 17 12C17 11.7166 16.9542 11.4625 16.8625 11.2375C16.7708 11.0125 16.6333 10.8083 16.45 10.625L17.85 9.17498C18.2167 9.54164 18.5 9.96664 18.7 10.45C18.9 10.9333 19 11.45 19 12C19 12.55 18.9 13.0625 18.7 13.5375C18.5 14.0125 18.2167 14.4333 17.85 14.8ZM20.675 17.625L19.225 16.25C19.775 15.7 20.2083 15.0625 20.525 14.3375C20.8417 13.6125 21 12.8333 21 12C21 11.15 20.8417 10.3666 20.525 9.64998C20.2083 8.93331 19.775 8.29998 19.225 7.74998L20.675 6.34998C21.4083 7.08331 21.9792 7.93331 22.3875 8.89998C22.7958 9.86664 23 10.9 23 12C23 13.1 22.7958 14.1291 22.3875 15.0875C21.9792 16.0458 21.4083 16.8916 20.675 17.625Z" fill="#1C1B1F"/>
</g>
</svg>
