<svg width="34" height="32" viewBox="0 0 34 32" fill="none" xmlns="http://www.w3.org/2000/svg">
<path d="M2.77792 31.6667C2.02792 31.6667 1.37736 31.3912 0.82625 30.8404C0.275417 30.2893 0 29.6388 0 28.8888V9.44458C0 8.69458 0.275417 8.04403 0.82625 7.49292C1.37736 6.94208 2.02792 6.66667 2.77792 6.66667H10V2.77792C10 2.02792 10.2754 1.37736 10.8263 0.826251C11.3774 0.275417 12.0279 0 12.7779 0H20.5554C21.3054 0 21.956 0.275417 22.5071 0.826251C23.0579 1.37736 23.3333 2.02792 23.3333 2.77792V6.66667H30.5554C31.3054 6.66667 31.956 6.94208 32.5071 7.49292C33.0579 8.04403 33.3333 8.69458 33.3333 9.44458V28.8888C33.3333 29.6388 33.0579 30.2893 32.5071 30.8404C31.956 31.3912 31.3054 31.6667 30.5554 31.6667H2.77792ZM12.7779 6.66667H20.5554V2.77792H12.7779V6.66667ZM30.5554 21.3613H20.8613V24.1387H12.5279V21.3613H2.77792V28.8888H30.5554V21.3613ZM15.3054 21.3613H18.0833V18.5833H15.3054V21.3613ZM2.77792 18.5833H12.5279V15.8054H20.8613V18.5833H30.5554V9.44458H2.77792V18.5833Z" fill="white"/>
</svg>
