<svg width="40" height="40" viewBox="0 0 40 40" fill="none" xmlns="http://www.w3.org/2000/svg">
<mask id="mask0_1_121" style="mask-type:alpha" maskUnits="userSpaceOnUse" x="0" y="0" width="40" height="40">
<rect width="40" height="40" fill="#D9D9D9"/>
</mask>
<g mask="url(#mask0_1_121)">
<path d="M6.11126 35C5.36126 35 4.7107 34.7246 4.15959 34.1737C3.60876 33.6226 3.33334 32.9721 3.33334 32.2221V12.7779C3.33334 12.0279 3.60876 11.3773 4.15959 10.8262C4.7107 10.2754 5.36126 9.99998 6.11126 9.99998H13.3333V6.11123C13.3333 5.36123 13.6088 4.71067 14.1596 4.15956C14.7107 3.60873 15.3613 3.33331 16.1113 3.33331H23.8888C24.6388 3.33331 25.2893 3.60873 25.8404 4.15956C26.3913 4.71067 26.6667 5.36123 26.6667 6.11123V9.99998H33.8888C34.6388 9.99998 35.2893 10.2754 35.8404 10.8262C36.3913 11.3773 36.6667 12.0279 36.6667 12.7779V32.2221C36.6667 32.9721 36.3913 33.6226 35.8404 34.1737C35.2893 34.7246 34.6388 35 33.8888 35H6.11126ZM16.1113 9.99998H23.8888V6.11123H16.1113V9.99998ZM33.8888 24.6946H24.1946V27.4721H15.8613V24.6946H6.11126V32.2221H33.8888V24.6946ZM18.6388 24.6946H21.4167V21.9166H18.6388V24.6946ZM6.11126 21.9166H15.8613V19.1387H24.1946V21.9166H33.8888V12.7779H6.11126V21.9166Z" fill="white"/>
</g>
</svg>
