<svg width="64" height="64" viewBox="0 0 64 64" fill="none" xmlns="http://www.w3.org/2000/svg">
<path d="M32 0C49.6731 0 64 14.3269 64 32C64 49.6731 49.6731 64 32 64C14.3269 64 0 49.6731 0 32C0 14.3269 14.3269 0 32 0Z" fill="#1E7F3E"/>
<path d="M32 0C49.6731 0 64 14.3269 64 32C64 49.6731 49.6731 64 32 64C14.3269 64 0 49.6731 0 32C0 14.3269 14.3269 0 32 0Z" stroke="#E5E7EB"/>
<path d="M42.5 48H21.5V16H42.5V48Z" stroke="#E5E7EB"/>
<mask id="mask0_1_223" style="mask-type:alpha" maskUnits="userSpaceOnUse" x="20" y="19" width="24" height="24">
<rect x="20" y="19" width="24" height="24" fill="#D9D9D9"/>
</mask>
<g mask="url(#mask0_1_223)">
<path d="M22 35V32.2C22 31.6333 22.1458 31.1125 22.4375 30.6375C22.7292 30.1625 23.1167 29.8 23.6 29.55C24.6333 29.0333 25.6833 28.6458 26.75 28.3875C27.8167 28.1292 28.9 28 30 28C30.75 28 31.4917 28.0583 32.225 28.175C32.9583 28.2917 33.6917 28.475 34.425 28.725C34.1417 28.9583 33.8833 29.2125 33.65 29.4875C33.4167 29.7625 33.2083 30.0583 33.025 30.375C32.525 30.2417 32.025 30.1458 31.525 30.0875C31.025 30.0292 30.5167 30 30 30C29.0667 30 28.1417 30.1125 27.225 30.3375C26.3083 30.5625 25.4 30.9 24.5 31.35C24.35 31.4333 24.2292 31.55 24.1375 31.7C24.0458 31.85 24 32.0167 24 32.2V33H32.075C32.0417 33.3333 32.025 33.6667 32.025 34C32.025 34.3333 32.0417 34.6667 32.075 35H22ZM30 27C28.9 27 27.9583 26.6083 27.175 25.825C26.3917 25.0417 26 24.1 26 23C26 21.9 26.3917 20.9583 27.175 20.175C27.9583 19.3917 28.9 19 30 19C31.1 19 32.0417 19.3917 32.825 20.175C33.6083 20.9583 34 21.9 34 23C34 24.1 33.6083 25.0417 32.825 25.825C32.0417 26.6083 31.1 27 30 27ZM30 25C30.55 25 31.0208 24.8042 31.4125 24.4125C31.8042 24.0208 32 23.55 32 23C32 22.45 31.8042 21.9792 31.4125 21.5875C31.0208 21.1958 30.55 21 30 21C29.45 21 28.9792 21.1958 28.5875 21.5875C28.1958 21.9792 28 22.45 28 23C28 23.55 28.1958 24.0208 28.5875 24.4125C28.9792 24.8042 29.45 25 30 25ZM40 23C40 24.1 39.6083 25.0417 38.825 25.825C38.0417 26.6083 37.1 27 36 27C35.8167 27 35.5833 26.9792 35.3 26.9375C35.0167 26.8958 34.7833 26.85 34.6 26.8C35.05 26.2667 35.3958 25.675 35.6375 25.025C35.8792 24.375 36 23.7 36 23C36 22.3 35.8792 21.625 35.6375 20.975C35.3958 20.325 35.05 19.7333 34.6 19.2C34.8333 19.1167 35.0667 19.0625 35.3 19.0375C35.5333 19.0125 35.7667 19 36 19C37.1 19 38.0417 19.3917 38.825 20.175C39.6083 20.9583 40 21.9 40 23ZM39 39C37.6167 39 36.4375 38.5125 35.4625 37.5375C34.4875 36.5625 34 35.3833 34 34C34 32.6 34.4875 31.4167 35.4625 30.45C36.4375 29.4833 37.6167 29 39 29C40.4 29 41.5833 29.4833 42.55 30.45C43.5167 31.4167 44 32.6 44 34C44 35.3833 43.5167 36.5625 42.55 37.5375C41.5833 38.5125 40.4 39 39 39ZM38.3 36.25L41.825 32.7L41.125 32L38.3 34.825L36.875 33.4L36.175 34.125L38.3 36.25Z" fill="white"/>
</g>
</svg>
