<svg width="64" height="64" viewBox="0 0 64 64" fill="none" xmlns="http://www.w3.org/2000/svg">
<path d="M32 0C49.6731 0 64 14.3269 64 32C64 49.6731 49.6731 64 32 64C14.3269 64 0 49.6731 0 32C0 14.3269 14.3269 0 32 0Z" fill="#1E7F3E"/>
<path d="M32 0C49.6731 0 64 14.3269 64 32C64 49.6731 49.6731 64 32 64C14.3269 64 0 49.6731 0 32C0 14.3269 14.3269 0 32 0Z" stroke="#E5E7EB"/>
<mask id="mask0_1_183" style="mask-type:alpha" maskUnits="userSpaceOnUse" x="20" y="20" width="24" height="24">
<rect x="20" y="20" width="24" height="24" fill="#D9D9D9"/>
</mask>
<g mask="url(#mask0_1_183)">
<path d="M23 41V27H27V23H37V31H41V41H33V37H31V41H23ZM25 39H27V37H25V39ZM25 35H27V33H25V35ZM25 31H27V29H25V31ZM29 35H31V33H29V35ZM29 31H31V29H29V31ZM29 27H31V25H29V27ZM33 35H35V33H33V35ZM33 31H35V29H33V31ZM33 27H35V25H33V27ZM37 39H39V37H37V39ZM37 35H39V33H37V35Z" fill="white"/>
</g>
</svg>
