<svg width="64" height="64" viewBox="0 0 64 64" fill="none" xmlns="http://www.w3.org/2000/svg">
<path d="M32 0C49.6731 0 64 14.3269 64 32C64 49.6731 49.6731 64 32 64C14.3269 64 0 49.6731 0 32C0 14.3269 14.3269 0 32 0Z" fill="#1E7F3E"/>
<path d="M32 0C49.6731 0 64 14.3269 64 32C64 49.6731 49.6731 64 32 64C14.3269 64 0 49.6731 0 32C0 14.3269 14.3269 0 32 0Z" stroke="#E5E7EB"/>
<path d="M42.5 48H21.5V16H42.5V48Z" stroke="#E5E7EB"/>
<g clip-path="url(#clip0_1_196)">
<path d="M36.5 21.25C36.5 20.6533 36.2629 20.081 35.841 19.659C35.419 19.2371 34.8467 19 34.25 19C33.6533 19 33.081 19.2371 32.659 19.659C32.2371 20.081 32 20.6533 32 21.25C32 21.8467 32.2371 22.419 32.659 22.841C33.081 23.2629 33.6533 23.5 34.25 23.5C34.8467 23.5 35.419 23.2629 35.841 22.841C36.2629 22.419 36.5 21.8467 36.5 21.25ZM27.3922 27.2266C27.8562 26.7625 28.4891 26.5 29.15 26.5C29.2391 26.5 29.3281 26.5047 29.4125 26.5141L27.95 30.9062C27.5141 32.2188 28.0297 33.6625 29.2062 34.3984L33.2469 36.925L32.0562 41.0875C31.8266 41.8844 32.2906 42.7141 33.0875 42.9437C33.8844 43.1734 34.7141 42.7094 34.9437 41.9125L36.2891 37.2062C36.5656 36.2406 36.1672 35.2094 35.3187 34.6797L32.6562 33.0156L34.1047 29.1531L34.3438 29.7297C35.0469 31.4078 36.6828 32.5 38.5016 32.5H39.5C40.3297 32.5 41 31.8297 41 31C41 30.1703 40.3297 29.5 39.5 29.5H38.5016C37.8969 29.5 37.3484 29.1344 37.1188 28.5766L36.8234 27.8734C36.1391 26.2281 34.7562 24.9719 33.05 24.4469L30.7672 23.7437C30.2469 23.5844 29.7031 23.5 29.1547 23.5C27.7016 23.5 26.3047 24.0766 25.2781 25.1078L24.1906 26.1906C23.6047 26.7766 23.6047 27.7281 24.1906 28.3141C24.7766 28.9 25.7281 28.9 26.3141 28.3141L27.3969 27.2313L27.3922 27.2266ZM25.775 35.5H23C22.1703 35.5 21.5 36.1703 21.5 37C21.5 37.8297 22.1703 38.5 23 38.5H26.2625C27.1531 38.5 27.9594 37.975 28.3203 37.1641L28.8594 35.95L28.4141 35.6688C27.5938 35.1578 26.9844 34.4125 26.6375 33.5641L25.775 35.5Z" fill="white"/>
</g>
<defs>
<clipPath id="clip0_1_196">
<path d="M21.5 19H42.5V43H21.5V19Z" fill="white"/>
</clipPath>
</defs>
</svg>
