<svg width="64" height="64" viewBox="0 0 64 64" fill="none" xmlns="http://www.w3.org/2000/svg">
<path d="M32 0C49.6731 0 64 14.3269 64 32C64 49.6731 49.6731 64 32 64C14.3269 64 0 49.6731 0 32C0 14.3269 14.3269 0 32 0Z" fill="#1E7F3E"/>
<path d="M32 0C49.6731 0 64 14.3269 64 32C64 49.6731 49.6731 64 32 64C14.3269 64 0 49.6731 0 32C0 14.3269 14.3269 0 32 0Z" stroke="#E5E7EB"/>
<path d="M42.5 48H21.5V16H42.5V48Z" stroke="#E5E7EB"/>
<mask id="mask0_1_209" style="mask-type:alpha" maskUnits="userSpaceOnUse" x="20" y="19" width="24" height="24">
<rect x="20" y="19" width="24" height="24" fill="#D9D9D9"/>
</mask>
<g mask="url(#mask0_1_209)">
<path d="M31 38C29.3333 38 27.9167 37.4167 26.75 36.25C25.5833 35.0833 25 33.6667 25 32C25 31.8167 25.0083 31.6333 25.025 31.45C25.0417 31.2667 25.0667 31.0833 25.1 30.9C25.0167 30.9333 24.9167 30.9583 24.8 30.975C24.6833 30.9917 24.5833 31 24.5 31C23.8 31 23.2083 30.7583 22.725 30.275C22.2417 29.7917 22 29.2 22 28.5C22 27.8 22.2292 27.2083 22.6875 26.725C23.1458 26.2417 23.725 26 24.425 26C24.975 26 25.4708 26.1542 25.9125 26.4625C26.3542 26.7708 26.6667 27.1667 26.85 27.65C27.4 27.15 28.0292 26.75 28.7375 26.45C29.4458 26.15 30.2 26 31 26H42V30H37V32C37 33.6667 36.4167 35.0833 35.25 36.25C34.0833 37.4167 32.6667 38 31 38ZM24.5 29.5C24.7833 29.5 25.0208 29.4042 25.2125 29.2125C25.4042 29.0208 25.5 28.7833 25.5 28.5C25.5 28.2167 25.4042 27.9792 25.2125 27.7875C25.0208 27.5958 24.7833 27.5 24.5 27.5C24.2167 27.5 23.9792 27.5958 23.7875 27.7875C23.5958 27.9792 23.5 28.2167 23.5 28.5C23.5 28.7833 23.5958 29.0208 23.7875 29.2125C23.9792 29.4042 24.2167 29.5 24.5 29.5ZM31 35.5C31.9667 35.5 32.7917 35.1583 33.475 34.475C34.1583 33.7917 34.5 32.9667 34.5 32C34.5 31.0333 34.1583 30.2083 33.475 29.525C32.7917 28.8417 31.9667 28.5 31 28.5C30.0333 28.5 29.2083 28.8417 28.525 29.525C27.8417 30.2083 27.5 31.0333 27.5 32C27.5 32.9667 27.8417 33.7917 28.525 34.475C29.2083 35.1583 30.0333 35.5 31 35.5ZM31 34C31.55 34 32.0208 33.8042 32.4125 33.4125C32.8042 33.0208 33 32.55 33 32C33 31.45 32.8042 30.9792 32.4125 30.5875C32.0208 30.1958 31.55 30 31 30C30.45 30 29.9792 30.1958 29.5875 30.5875C29.1958 30.9792 29 31.45 29 32C29 32.55 29.1958 33.0208 29.5875 33.4125C29.9792 33.8042 30.45 34 31 34Z" fill="white"/>
</g>
</svg>
