<svg width="110" height="110" viewBox="0 0 110 110" fill="none" xmlns="http://www.w3.org/2000/svg">
<g filter="url(#filter0_dd_1_170)">
<path d="M15 45C15 22.9086 32.9086 5 55 5C77.0914 5 95 22.9086 95 45C95 67.0914 77.0914 85 55 85C32.9086 85 15 67.0914 15 45Z" fill="white"/>
<mask id="mask0_1_170" style="mask-type:alpha" maskUnits="userSpaceOnUse" x="35" y="25" width="41" height="40">
<rect x="35.0469" y="25" width="40" height="40" fill="#D9D9D9"/>
</mask>
<g mask="url(#mask0_1_170)">
<path d="M54.8385 58.8887C54.9682 58.8887 55.1117 58.8563 55.2689 58.7916C55.4264 58.7269 55.5514 58.6482 55.6439 58.5554L69.5606 44.6112C69.9125 44.2593 70.1742 43.8595 70.3456 43.412C70.5167 42.9645 70.6023 42.517 70.6023 42.0695C70.6023 41.6065 70.5167 41.1504 70.3456 40.7012C70.1742 40.2523 69.9125 39.8565 69.5606 39.5137L62.1998 32.1529C61.857 31.8009 61.4612 31.5393 61.0123 31.3679C60.5631 31.1968 60.107 31.1112 59.6439 31.1112C59.1964 31.1112 58.7489 31.1968 58.3014 31.3679C57.8539 31.5393 57.4542 31.8009 57.1023 32.1529L56.4498 32.8054L59.7273 36.125C60.107 36.5138 60.4219 36.9629 60.6719 37.472C60.9219 37.9815 61.0469 38.5325 61.0469 39.125C61.0469 40.2175 60.6417 41.1643 59.8314 41.9654C59.0214 42.7662 58.07 43.1666 56.9773 43.1666C56.3292 43.1666 55.7667 43.0648 55.2898 42.8612C54.8131 42.6573 54.3832 42.3625 54.0002 41.9766L50.9219 38.9166L43.4635 46.375C43.3432 46.4952 43.2575 46.6227 43.2064 46.7575C43.1556 46.8925 43.1302 47.0369 43.1302 47.1908C43.1302 47.4988 43.2367 47.7616 43.4498 47.9791C43.6625 48.1966 43.9232 48.3054 44.2319 48.3054C44.3863 48.3054 44.533 48.2684 44.6719 48.1945C44.8107 48.1204 44.9264 48.037 45.0189 47.9445L50.7414 42.222L52.6856 44.1666L47.0052 49.8612C46.8849 49.9815 46.7992 50.1134 46.7481 50.257C46.6973 50.4004 46.6719 50.5462 46.6719 50.6945C46.6719 50.9907 46.783 51.2498 47.0052 51.472C47.2274 51.6943 47.4867 51.8054 47.7831 51.8054C47.9312 51.8054 48.0746 51.773 48.2135 51.7083C48.3524 51.6436 48.4681 51.5648 48.5606 51.472L54.2831 45.7637L56.2273 47.7083L50.5469 53.4029C50.4449 53.4954 50.3639 53.6188 50.3039 53.7733C50.2437 53.9275 50.2135 54.0818 50.2135 54.2362C50.2135 54.5323 50.3246 54.7915 50.5469 55.0137C50.7691 55.2359 51.0284 55.347 51.3248 55.347C51.4728 55.347 51.6094 55.3216 51.7344 55.2708C51.8594 55.22 51.982 55.1343 52.1023 55.0137L57.8248 49.3054L59.7689 51.25L54.0469 56.972C53.9266 57.0926 53.8409 57.2245 53.7898 57.3679C53.7389 57.5115 53.7135 57.6482 53.7135 57.7779C53.7135 58.1112 53.8177 58.3797 54.026 58.5833C54.2344 58.7869 54.5052 58.8887 54.8385 58.8887ZM54.8264 61.6666C53.8714 61.6666 53.0213 61.3264 52.276 60.6458C51.5307 59.9652 51.0887 59.1193 50.9498 58.1079C50.0053 57.9712 49.2137 57.5834 48.5748 56.9445C47.9359 56.3057 47.547 55.514 47.4081 54.5695C46.4637 54.4307 45.6789 54.0348 45.0539 53.382C44.4289 52.7293 44.047 51.9445 43.9081 51.0279C42.8709 50.889 42.0189 50.4584 41.3523 49.7362C40.6856 49.014 40.3523 48.1529 40.3523 47.1529C40.3523 46.6529 40.4494 46.1593 40.6435 45.672C40.8374 45.1851 41.1153 44.7573 41.4773 44.3887L50.9219 34.9583L55.7969 39.8333C55.9635 40.0091 56.1519 40.1457 56.3619 40.2429C56.5716 40.3401 56.7814 40.3887 56.9914 40.3887C57.3153 40.3887 57.6116 40.2568 57.8802 39.9929C58.1488 39.729 58.2831 39.4336 58.2831 39.1066C58.2831 38.9613 58.2437 38.8008 58.1648 38.625C58.0862 38.4491 57.9589 38.2779 57.7831 38.1112L51.8248 32.1529C51.482 31.8009 51.0862 31.5393 50.6373 31.3679C50.1881 31.1968 49.732 31.1112 49.2689 31.1112C48.8214 31.1112 48.3739 31.1968 47.9264 31.3679C47.4789 31.5393 47.0798 31.7995 46.7289 32.1487L40.5469 38.347C40.2044 38.6898 39.9544 39.0602 39.7969 39.4583C39.6394 39.8563 39.5421 40.2915 39.5052 40.7637C39.4682 41.2359 39.5377 41.7012 39.7135 42.1595C39.8894 42.6179 40.1162 43.0369 40.3939 43.4166L38.3939 45.4166C37.8662 44.7963 37.4495 44.0718 37.1439 43.2429C36.8384 42.4143 36.6949 41.574 36.7135 40.722C36.7321 39.9073 36.9034 39.1226 37.2273 38.3679C37.5514 37.6134 38.0052 36.9445 38.5885 36.3612L44.7414 30.2083C45.3709 29.588 46.0796 29.1251 46.8677 28.8195C47.6555 28.514 48.4632 28.3612 49.291 28.3612C50.1191 28.3612 50.9242 28.514 51.7064 28.8195C52.4889 29.1251 53.1903 29.588 53.8106 30.2083L54.4635 30.8612L55.1164 30.2083C55.7459 29.588 56.4546 29.1251 57.2427 28.8195C58.0305 28.514 58.8382 28.3612 59.666 28.3612C60.4941 28.3612 61.2992 28.514 62.0814 28.8195C62.8639 29.1251 63.5653 29.588 64.1856 30.2083L71.5052 37.5279C72.1255 38.1482 72.5931 38.8568 72.9081 39.6537C73.2228 40.4507 73.3802 41.2608 73.3802 42.0841C73.3802 42.9077 73.2228 43.7107 72.9081 44.4929C72.5931 45.2754 72.1255 45.9768 71.5052 46.597L57.5885 60.5C57.2182 60.8702 56.7944 61.1573 56.3169 61.3612C55.8393 61.5648 55.3425 61.6666 54.8264 61.6666Z" fill="#1E7F3E"/>
</g>
</g>
<defs>
<filter id="filter0_dd_1_170" x="0" y="0" width="110" height="110" filterUnits="userSpaceOnUse" color-interpolation-filters="sRGB">
<feFlood flood-opacity="0" result="BackgroundImageFix"/>
<feColorMatrix in="SourceAlpha" type="matrix" values="0 0 0 0 0 0 0 0 0 0 0 0 0 0 0 0 0 0 127 0" result="hardAlpha"/>
<feOffset dy="10"/>
<feGaussianBlur stdDeviation="7.5"/>
<feColorMatrix type="matrix" values="0 0 0 0 0 0 0 0 0 0 0 0 0 0 0 0 0 0 0.1 0"/>
<feBlend mode="normal" in2="BackgroundImageFix" result="effect1_dropShadow_1_170"/>
<feColorMatrix in="SourceAlpha" type="matrix" values="0 0 0 0 0 0 0 0 0 0 0 0 0 0 0 0 0 0 127 0" result="hardAlpha"/>
<feOffset dy="4"/>
<feGaussianBlur stdDeviation="3"/>
<feColorMatrix type="matrix" values="0 0 0 0 0 0 0 0 0 0 0 0 0 0 0 0 0 0 0.1 0"/>
<feBlend mode="normal" in2="effect1_dropShadow_1_170" result="effect2_dropShadow_1_170"/>
<feBlend mode="normal" in="SourceGraphic" in2="effect2_dropShadow_1_170" result="shape"/>
</filter>
</defs>
</svg>
