<svg width="110" height="110" viewBox="0 0 110 110" fill="none" xmlns="http://www.w3.org/2000/svg">
<g filter="url(#filter0_dd_1_156)">
<path d="M15 45C15 22.9086 32.9086 5 55 5C77.0914 5 95 22.9086 95 45C95 67.0914 77.0914 85 55 85C32.9086 85 15 67.0914 15 45Z" fill="white"/>
<mask id="mask0_1_156" style="mask-type:alpha" maskUnits="userSpaceOnUse" x="34" y="25" width="41" height="40">
<rect x="34.6094" y="25" width="40" height="40" fill="#D9D9D9"/>
</mask>
<g mask="url(#mask0_1_156)">
<path d="M64.8873 48.3333V43.0554H59.6094V40.2779H64.8873V35H67.6648V40.2779H72.9427V43.0554H67.6648V48.3333H64.8873ZM49.6094 44.9721C47.776 44.9721 46.2528 44.3657 45.0398 43.1529C43.827 41.9399 43.2206 40.4167 43.2206 38.5833C43.2206 36.75 43.827 35.2268 45.0398 34.0137C46.2528 32.801 47.776 32.1946 49.6094 32.1946C51.4427 32.1946 52.9659 32.801 54.1789 34.0137C55.3917 35.2268 55.9981 36.75 55.9981 38.5833C55.9981 40.4167 55.3917 41.9399 54.1789 43.1529C52.9659 44.3657 51.4427 44.9721 49.6094 44.9721ZM36.276 58.3333V54.1667C36.276 53.2036 36.5191 52.3262 37.0052 51.5346C37.4913 50.7429 38.1742 50.1481 39.0539 49.75C41.0167 48.8519 42.8346 48.2061 44.5077 47.8125C46.1805 47.4189 47.8795 47.2221 49.6048 47.2221C51.3301 47.2221 53.026 47.4189 54.6927 47.8125C56.3594 48.2061 58.1742 48.8519 60.1373 49.75C61.0167 50.1667 61.7042 50.7662 62.1998 51.5487C62.6951 52.331 62.9427 53.2036 62.9427 54.1667V58.3333H36.276ZM39.0539 55.5554H60.1648V54.1667C60.1648 53.7686 60.056 53.3936 59.8385 53.0417C59.621 52.6897 59.3317 52.4258 58.9706 52.25C57.1556 51.3889 55.5398 50.7986 54.1231 50.4792C52.7064 50.1597 51.2019 50 49.6094 50C48.0169 50 46.5076 50.1597 45.0814 50.4792C43.6556 50.7986 42.0353 51.3889 40.2206 52.25C39.8595 52.4258 39.5748 52.6897 39.3664 53.0417C39.1581 53.3936 39.0539 53.7686 39.0539 54.1667V55.5554ZM49.6094 42.1946C50.6371 42.1946 51.4959 41.8496 52.1856 41.1596C52.8756 40.4699 53.2206 39.6111 53.2206 38.5833C53.2206 37.5556 52.8756 36.6968 52.1856 36.0071C51.4959 35.3171 50.6371 34.9721 49.6094 34.9721C48.5816 34.9721 47.7228 35.3171 47.0331 36.0071C46.3431 36.6968 45.9981 37.5556 45.9981 38.5833C45.9981 39.6111 46.3431 40.4699 47.0331 41.1596C47.7228 41.8496 48.5816 42.1946 49.6094 42.1946Z" fill="#1E7F3E"/>
</g>
</g>
<defs>
<filter id="filter0_dd_1_156" x="0" y="0" width="110" height="110" filterUnits="userSpaceOnUse" color-interpolation-filters="sRGB">
<feFlood flood-opacity="0" result="BackgroundImageFix"/>
<feColorMatrix in="SourceAlpha" type="matrix" values="0 0 0 0 0 0 0 0 0 0 0 0 0 0 0 0 0 0 127 0" result="hardAlpha"/>
<feOffset dy="10"/>
<feGaussianBlur stdDeviation="7.5"/>
<feColorMatrix type="matrix" values="0 0 0 0 0 0 0 0 0 0 0 0 0 0 0 0 0 0 0.1 0"/>
<feBlend mode="normal" in2="BackgroundImageFix" result="effect1_dropShadow_1_156"/>
<feColorMatrix in="SourceAlpha" type="matrix" values="0 0 0 0 0 0 0 0 0 0 0 0 0 0 0 0 0 0 127 0" result="hardAlpha"/>
<feOffset dy="4"/>
<feGaussianBlur stdDeviation="3"/>
<feColorMatrix type="matrix" values="0 0 0 0 0 0 0 0 0 0 0 0 0 0 0 0 0 0 0.1 0"/>
<feBlend mode="normal" in2="effect1_dropShadow_1_156" result="effect2_dropShadow_1_156"/>
<feBlend mode="normal" in="SourceGraphic" in2="effect2_dropShadow_1_156" result="shape"/>
</filter>
</defs>
</svg>
