<svg width="40" height="37" viewBox="0 0 40 37" fill="none" xmlns="http://www.w3.org/2000/svg">
<path d="M14.3054 36.5554C12.9907 36.5554 11.8217 36.1804 10.7983 35.4304C9.77528 34.6804 9.03222 33.6943 8.56917 32.4721C8.12472 33.1482 7.57611 33.6738 6.92333 34.0488C6.27056 34.4238 5.5275 34.6113 4.69417 34.6113C3.35167 34.6113 2.23361 34.1436 1.34 33.2083C0.446667 32.2731 0 31.1574 0 29.8612C0 28.5557 0.411945 27.4793 1.23583 26.6321C2.06 25.7849 3.10639 25.3287 4.375 25.2637C3.91194 24.7082 3.55306 24.081 3.29833 23.3821C3.04389 22.6829 2.91667 21.9676 2.91667 21.2363C2.91667 20.1621 3.19208 19.1574 3.74292 18.2221C4.29375 17.2871 5.07389 16.5325 6.08333 15.9583C6.22222 16.3658 6.40042 16.8033 6.61792 17.2708C6.83542 17.7383 7.06917 18.1435 7.31917 18.4863C6.81917 18.8288 6.42569 19.2476 6.13875 19.7429C5.85181 20.2385 5.70833 20.7593 5.70833 21.3054C5.70833 22.9351 6.37028 23.9538 7.69417 24.3613C9.01833 24.7685 10.2869 25.0925 11.5 25.3333L12.0692 26.3054C11.7453 27.2499 11.4768 28.0346 11.2638 28.6596C11.0507 29.2846 10.9442 29.8564 10.9442 30.375C10.9442 31.2825 11.2799 32.0765 11.9513 32.7571C12.6226 33.4376 13.4167 33.7779 14.3333 33.7779C15.4444 33.7779 16.3611 33.301 17.0833 32.3471C17.8056 31.3935 18.3935 30.2639 18.8471 28.9583C19.3007 27.6528 19.6503 26.3333 19.8958 25C20.1411 23.6667 20.3425 22.6343 20.5 21.9029L23.1942 22.6387C22.9442 23.8518 22.6479 25.2546 22.3054 26.8471C21.9629 28.4399 21.4744 29.9561 20.84 31.3958C20.2058 32.8356 19.3725 34.0554 18.34 35.0554C17.3078 36.0554 15.9629 36.5554 14.3054 36.5554ZM4.72208 31.8333C5.26847 31.8333 5.72917 31.6458 6.10417 31.2708C6.47917 30.8958 6.66667 30.4351 6.66667 29.8888C6.66667 29.3426 6.47917 28.8821 6.10417 28.5071C5.72917 28.1321 5.26847 27.9446 4.72208 27.9446C4.17569 27.9446 3.715 28.1321 3.34 28.5071C2.965 28.8821 2.7775 29.3426 2.7775 29.8888C2.7775 30.4351 2.965 30.8958 3.34 31.2708C3.715 31.6458 4.17569 31.8333 4.72208 31.8333ZM17 24.3613C15.7406 23.2407 14.5947 22.1967 13.5625 21.2292C12.53 20.2617 11.6433 19.3172 10.9025 18.3958C10.1619 17.4744 9.59028 16.5624 9.1875 15.6596C8.78472 14.7568 8.58333 13.8054 8.58333 12.8054C8.58333 11.0926 9.17819 9.64125 10.3679 8.45125C11.5576 7.26153 13.009 6.66667 14.7221 6.66667C14.9257 6.66667 15.1156 6.67361 15.2917 6.6875C15.4675 6.70139 15.6481 6.72681 15.8333 6.76375C15.6294 6.35653 15.4812 5.99542 15.3888 5.68042C15.2963 5.3657 15.25 5.04625 15.25 4.72208C15.25 3.40736 15.7083 2.29167 16.625 1.375C17.5417 0.458333 18.6574 0 19.9721 0C21.2868 0 22.4025 0.458333 23.3192 1.375C24.2358 2.29167 24.6942 3.40736 24.6942 4.72208C24.6942 5.02764 24.6525 5.34014 24.5692 5.65958C24.4858 5.97903 24.3331 6.3425 24.1108 6.75C24.2961 6.71306 24.4767 6.68986 24.6525 6.68042C24.8286 6.67125 25.0185 6.66667 25.2221 6.66667C26.8332 6.66667 28.1989 7.18292 29.3192 8.21542C30.4397 9.24764 31.0925 10.5276 31.2775 12.0554C30.8517 12.0093 30.3864 11.9908 29.8817 12C29.3772 12.0092 28.9074 12.0415 28.4721 12.0971C28.3146 11.3288 27.9465 10.6946 27.3679 10.1946C26.7893 9.69458 26.074 9.44458 25.2221 9.44458C24.2129 9.44458 23.4189 9.72931 22.84 10.2987C22.2614 10.8682 21.4814 11.7224 20.5 12.8612H19.4025C18.3933 11.6668 17.5994 10.7987 17.0208 10.2571C16.4419 9.71542 15.6757 9.44458 14.7221 9.44458C13.759 9.44458 12.9581 9.76403 12.3192 10.4029C11.6803 11.0418 11.3608 11.8426 11.3608 12.8054C11.3608 13.4629 11.5414 14.1365 11.9025 14.8263C12.2636 15.5163 12.7753 16.2524 13.4375 17.0346C14.0994 17.8171 14.9003 18.6435 15.84 19.5138C16.78 20.3843 17.8286 21.3381 18.9858 22.375L17 24.3613ZM19.9721 6.66667C20.5185 6.66667 20.9792 6.47917 21.3542 6.10417C21.7292 5.72917 21.9167 5.26847 21.9167 4.72208C21.9167 4.17597 21.7292 3.71542 21.3542 3.34042C20.9792 2.96542 20.5185 2.77792 19.9721 2.77792C19.4257 2.77792 18.965 2.96542 18.59 3.34042C18.215 3.71542 18.0275 4.17597 18.0275 4.72208C18.0275 5.26847 18.215 5.72917 18.59 6.10417C18.965 6.47917 19.4257 6.66667 19.9721 6.66667ZM25.5971 36.5833C24.986 36.5833 24.3818 36.4907 23.7846 36.3054C23.1874 36.1204 22.611 35.8381 22.0554 35.4583C22.3054 35.1064 22.5554 34.7036 22.8054 34.25C23.0554 33.7964 23.2683 33.3751 23.4442 32.9863C23.8053 33.2546 24.1711 33.4536 24.5417 33.5833C24.9119 33.7131 25.2869 33.7779 25.6667 33.7779C26.6111 33.7779 27.4097 33.4376 28.0625 32.7571C28.7153 32.0765 29.0417 31.2779 29.0417 30.3612C29.0417 29.8149 28.9306 29.2315 28.7083 28.6113C28.4861 27.9907 28.2222 27.2175 27.9167 26.2917L28.4858 25.3196C29.7267 25.0974 31.0022 24.7825 32.3125 24.375C33.6225 23.9675 34.2775 22.949 34.2775 21.3196C34.2775 20.1343 33.8447 19.2593 32.9792 18.6946C32.1133 18.1296 31.1572 17.8471 30.1108 17.8471C28.9442 17.8471 27.5692 18.0693 25.9858 18.5138C24.4025 18.9582 22.56 19.5276 20.4583 20.2221L19.75 17.5279C21.8794 16.8335 23.7914 16.2501 25.4858 15.7779C27.1803 15.3057 28.7267 15.0696 30.125 15.0696C31.9489 15.0696 33.56 15.6158 34.9583 16.7083C36.3564 17.8008 37.0554 19.3286 37.0554 21.2917C37.0554 22.0231 36.9281 22.7338 36.6733 23.4238C36.4189 24.1135 36.0601 24.7361 35.5971 25.2917C36.8471 25.3564 37.8888 25.8171 38.7221 26.6738C39.5554 27.5301 39.9721 28.6018 39.9721 29.8888C39.9721 31.1851 39.5253 32.301 38.6317 33.2363C37.7383 34.1713 36.6203 34.6388 35.2775 34.6388C34.4628 34.6388 33.7197 34.4513 33.0483 34.0763C32.3772 33.7013 31.8286 33.1758 31.4025 32.5C30.9211 33.7222 30.1689 34.7083 29.1458 35.4583C28.1225 36.2083 26.9396 36.5833 25.5971 36.5833ZM35.2917 31.8612C35.8194 31.8612 36.2685 31.6737 36.6388 31.2987C37.009 30.9237 37.1942 30.4631 37.1942 29.9167C37.1942 29.3889 37.0021 28.926 36.6179 28.5279C36.2338 28.1296 35.7778 27.9304 35.25 27.9304C34.7222 27.9304 34.2661 28.1226 33.8817 28.5071C33.4975 28.8913 33.3054 29.3472 33.3054 29.875C33.3054 30.4028 33.5044 30.8657 33.9025 31.2638C34.3008 31.6621 34.7639 31.8612 35.2917 31.8612Z" fill="white"/>
</svg>
