<svg width="105" height="50" viewBox="0 0 105 50" fill="none" xmlns="http://www.w3.org/2000/svg">
<line x1="1" y1="24" x2="44" y2="24" stroke="#DEDEDE" stroke-width="2" stroke-linecap="round"/>
<circle cx="80" cy="25" r="25" fill="black" fill-opacity="0.1"/>
<mask id="mask0_1_1114" style="mask-type:alpha" maskUnits="userSpaceOnUse" x="68" y="13" width="24" height="24">
<rect x="68" y="13" width="24" height="24" fill="#D9D9D9"/>
</mask>
<g mask="url(#mask0_1_1114)">
<path d="M74 35C73.45 35 72.9792 34.8042 72.5875 34.4125C72.1958 34.0208 72 33.55 72 33V17C72 16.45 72.1958 15.9792 72.5875 15.5875C72.9792 15.1958 73.45 15 74 15H83L88 20V33C88 33.55 87.8042 34.0208 87.4125 34.4125C87.0208 34.8042 86.55 35 86 35H74ZM74 33H86V21H82V17H74V33ZM80 32C81.1167 32 82.0625 31.6083 82.8375 30.825C83.6125 30.0417 84 29.1 84 28V24H82V28C82 28.55 81.8083 29.0208 81.425 29.4125C81.0417 29.8042 80.5667 30 80 30C79.45 30 78.9792 29.8042 78.5875 29.4125C78.1958 29.0208 78 28.55 78 28V22.5C78 22.35 78.05 22.2292 78.15 22.1375C78.25 22.0458 78.3667 22 78.5 22C78.65 22 78.7708 22.0458 78.8625 22.1375C78.9542 22.2292 79 22.35 79 22.5V28H81V22.5C81 21.8 80.7583 21.2083 80.275 20.725C79.7917 20.2417 79.2 20 78.5 20C77.8 20 77.2083 20.2417 76.725 20.725C76.2417 21.2083 76 21.8 76 22.5V28C76 29.1 76.3917 30.0417 77.175 30.825C77.9583 31.6083 78.9 32 80 32Z" fill="#636363"/>
</g>
</svg>
