<svg width="157" height="51" viewBox="0 0 157 51" fill="none" xmlns="http://www.w3.org/2000/svg">
<circle cx="25.5" cy="25.5" r="25.5" fill="white"/>
<g clip-path="url(#clip0_1_81)">
<path d="M38.7316 33.8361L32.8582 33.4518C32.4316 33.4277 32.0133 33.5398 31.6688 33.7881C31.3242 34.0363 31.0781 34.3807 30.9797 34.7891L29.5359 40.3625C28.248 40.6988 26.8945 40.875 25.5 40.875C24.1055 40.875 22.752 40.6988 21.4641 40.3625L20.0203 34.7891C19.9137 34.3887 19.6676 34.0363 19.3313 33.7881C18.9949 33.5398 18.5684 33.4277 18.1418 33.4518L12.2684 33.8361C10.8246 31.658 9.93047 29.0955 9.77461 26.3408L14.7539 23.2818C15.1148 23.0576 15.3773 22.7213 15.5086 22.3289C15.6398 21.9365 15.6234 21.5121 15.4676 21.1277L13.2773 15.7945C15 13.7445 17.2395 12.127 19.8152 11.158L24.3434 14.8416C24.6715 15.1059 25.0816 15.25 25.5 15.25C25.9184 15.25 26.3367 15.1059 26.6566 14.8416L31.1848 11.158C33.7523 12.127 36 13.7445 37.7145 15.7945L35.5242 21.1277C35.3684 21.5121 35.352 21.9365 35.4832 22.3289C35.6145 22.7213 35.8852 23.0576 36.2379 23.2818L41.2172 26.3408C41.0613 29.0955 40.1672 31.658 38.7234 33.8361H38.7316ZM25.5 46C31.0695 46 36.411 43.8402 40.3492 39.9957C44.2875 36.1512 46.5 30.9369 46.5 25.5C46.5 20.0631 44.2875 14.8488 40.3492 11.0043C36.411 7.15982 31.0695 5 25.5 5C19.9305 5 14.589 7.15982 10.6508 11.0043C6.71249 14.8488 4.5 20.0631 4.5 25.5C4.5 30.9369 6.71249 36.1512 10.6508 39.9957C14.589 43.8402 19.9305 46 25.5 46ZM26.6566 19.9186C25.9676 19.4301 25.0324 19.4301 24.3434 19.9186L20.4141 22.6973C19.725 23.1857 19.4379 24.0506 19.7004 24.8434L21.2016 29.3518C21.4641 30.1445 22.2187 30.6811 23.0719 30.6811H27.9281C28.7812 30.6811 29.5359 30.1445 29.7984 29.3518L31.2996 24.8434C31.5621 24.0506 31.275 23.1857 30.5859 22.6973L26.6566 19.9105V19.9186Z" fill="#1E7F3E"/>
</g>
<path d="M62.7216 23V5.54545H73.9034V8.19602H65.8835V12.9347H73.1364V15.5852H65.8835V23H62.7216ZM81.397 23.2557C80.1186 23.2557 79.0107 22.9744 78.0732 22.4119C77.1357 21.8494 76.4084 21.0625 75.8913 20.0511C75.38 19.0398 75.1243 17.858 75.1243 16.5057C75.1243 15.1534 75.38 13.9687 75.8913 12.9517C76.4084 11.9347 77.1357 11.1449 78.0732 10.5824C79.0107 10.0199 80.1186 9.73864 81.397 9.73864C82.6754 9.73864 83.7834 10.0199 84.7209 10.5824C85.6584 11.1449 86.3828 11.9347 86.8942 12.9517C87.4112 13.9687 87.6697 15.1534 87.6697 16.5057C87.6697 17.858 87.4112 19.0398 86.8942 20.0511C86.3828 21.0625 85.6584 21.8494 84.7209 22.4119C83.7834 22.9744 82.6754 23.2557 81.397 23.2557ZM81.4141 20.7841C82.1072 20.7841 82.6868 20.5937 83.1527 20.2131C83.6186 19.8267 83.9652 19.3097 84.1925 18.6619C84.4254 18.0142 84.5419 17.2926 84.5419 16.4972C84.5419 15.696 84.4254 14.9716 84.1925 14.3239C83.9652 13.6705 83.6186 13.1506 83.1527 12.7642C82.6868 12.3778 82.1072 12.1847 81.4141 12.1847C80.7038 12.1847 80.1129 12.3778 79.6413 12.7642C79.1754 13.1506 78.826 13.6705 78.593 14.3239C78.3658 14.9716 78.2521 15.696 78.2521 16.4972C78.2521 17.2926 78.3658 18.0142 78.593 18.6619C78.826 19.3097 79.1754 19.8267 79.6413 20.2131C80.1129 20.5937 80.7038 20.7841 81.4141 20.7841ZM95.9986 23.2557C94.7202 23.2557 93.6122 22.9744 92.6747 22.4119C91.7372 21.8494 91.0099 21.0625 90.4929 20.0511C89.9815 19.0398 89.7259 17.858 89.7259 16.5057C89.7259 15.1534 89.9815 13.9687 90.4929 12.9517C91.0099 11.9347 91.7372 11.1449 92.6747 10.5824C93.6122 10.0199 94.7202 9.73864 95.9986 9.73864C97.277 9.73864 98.3849 10.0199 99.3224 10.5824C100.26 11.1449 100.984 11.9347 101.496 12.9517C102.013 13.9687 102.271 15.1534 102.271 16.5057C102.271 17.858 102.013 19.0398 101.496 20.0511C100.984 21.0625 100.26 21.8494 99.3224 22.4119C98.3849 22.9744 97.277 23.2557 95.9986 23.2557ZM96.0156 20.7841C96.7088 20.7841 97.2884 20.5937 97.7543 20.2131C98.2202 19.8267 98.5668 19.3097 98.794 18.6619C99.027 18.0142 99.1435 17.2926 99.1435 16.4972C99.1435 15.696 99.027 14.9716 98.794 14.3239C98.5668 13.6705 98.2202 13.1506 97.7543 12.7642C97.2884 12.3778 96.7088 12.1847 96.0156 12.1847C95.3054 12.1847 94.7145 12.3778 94.2429 12.7642C93.777 13.1506 93.4276 13.6705 93.1946 14.3239C92.9673 14.9716 92.8537 15.696 92.8537 16.4972C92.8537 17.2926 92.9673 18.0142 93.1946 18.6619C93.4276 19.3097 93.777 19.8267 94.2429 20.2131C94.7145 20.5937 95.3054 20.7841 96.0156 20.7841ZM111.427 9.90909V12.2955H103.901V9.90909H111.427ZM105.759 6.77273H108.844V19.0625C108.844 19.4773 108.907 19.7955 109.032 20.017C109.163 20.233 109.333 20.3807 109.543 20.4602C109.754 20.5398 109.987 20.5795 110.242 20.5795C110.435 20.5795 110.612 20.5653 110.771 20.5369C110.935 20.5085 111.06 20.483 111.146 20.4602L111.665 22.8722C111.501 22.929 111.265 22.9915 110.958 23.0597C110.657 23.1278 110.288 23.1676 109.85 23.179C109.077 23.2017 108.381 23.0852 107.762 22.8295C107.143 22.5682 106.651 22.1648 106.288 21.6193C105.93 21.0739 105.754 20.392 105.759 19.5739V6.77273ZM114.425 23V5.54545H117.51V12.0739H117.638C117.797 11.7557 118.021 11.4176 118.311 11.0597C118.601 10.696 118.993 10.3864 119.487 10.1307C119.982 9.86932 120.612 9.73864 121.379 9.73864C122.391 9.73864 123.303 9.99716 124.115 10.5142C124.933 11.0256 125.581 11.7841 126.058 12.7898C126.541 13.7898 126.783 15.017 126.783 16.4716C126.783 17.9091 126.547 19.1307 126.075 20.1364C125.604 21.142 124.962 21.9091 124.149 22.4375C123.337 22.9659 122.416 23.2301 121.388 23.2301C120.638 23.2301 120.016 23.1051 119.521 22.8551C119.027 22.6051 118.629 22.304 118.328 21.9517C118.033 21.5937 117.803 21.2557 117.638 20.9375H117.459V23H114.425ZM117.45 16.4545C117.45 17.3011 117.57 18.0426 117.808 18.679C118.053 19.3153 118.402 19.8125 118.857 20.1705C119.317 20.5227 119.874 20.6989 120.527 20.6989C121.209 20.6989 121.78 20.517 122.24 20.1534C122.7 19.7841 123.047 19.2812 123.28 18.6449C123.518 18.0028 123.638 17.2727 123.638 16.4545C123.638 15.642 123.521 14.9205 123.288 14.2898C123.055 13.6591 122.709 13.1648 122.249 12.8068C121.788 12.4489 121.214 12.2699 120.527 12.2699C119.868 12.2699 119.308 12.4432 118.848 12.7898C118.388 13.1364 118.038 13.6222 117.8 14.2472C117.567 14.8722 117.45 15.608 117.45 16.4545ZM133.173 23.2642C132.343 23.2642 131.596 23.1165 130.931 22.821C130.272 22.5199 129.749 22.0767 129.363 21.4915C128.982 20.9062 128.792 20.1847 128.792 19.3267C128.792 18.5881 128.928 17.9773 129.201 17.4943C129.474 17.0114 129.846 16.625 130.317 16.3352C130.789 16.0455 131.32 15.8267 131.911 15.679C132.508 15.5256 133.124 15.4148 133.761 15.3466C134.528 15.267 135.15 15.196 135.627 15.1335C136.104 15.0653 136.451 14.9631 136.667 14.8267C136.888 14.6847 136.999 14.4659 136.999 14.1705V14.1193C136.999 13.4773 136.809 12.9801 136.428 12.6278C136.048 12.2756 135.499 12.0994 134.783 12.0994C134.028 12.0994 133.428 12.2642 132.985 12.5938C132.548 12.9233 132.252 13.3125 132.099 13.7614L129.218 13.3523C129.445 12.5568 129.82 11.892 130.343 11.358C130.866 10.8182 131.505 10.4148 132.261 10.1477C133.016 9.875 133.852 9.73864 134.766 9.73864C135.397 9.73864 136.025 9.8125 136.65 9.96023C137.275 10.108 137.846 10.3523 138.363 10.6932C138.88 11.0284 139.295 11.4858 139.607 12.0653C139.925 12.6449 140.085 13.3693 140.085 14.2386V23H137.119V21.2017H137.016C136.829 21.5653 136.565 21.9062 136.224 22.2244C135.888 22.5369 135.465 22.7898 134.954 22.983C134.448 23.1705 133.854 23.2642 133.173 23.2642ZM133.974 20.9972C134.593 20.9972 135.13 20.875 135.585 20.6307C136.039 20.3807 136.388 20.0511 136.633 19.642C136.883 19.233 137.008 18.7869 137.008 18.304V16.7614C136.911 16.8409 136.746 16.9148 136.513 16.983C136.286 17.0511 136.031 17.1108 135.746 17.1619C135.462 17.2131 135.181 17.2585 134.903 17.2983C134.624 17.3381 134.383 17.3722 134.178 17.4006C133.718 17.4631 133.306 17.5653 132.942 17.7074C132.579 17.8494 132.292 18.0483 132.082 18.304C131.871 18.554 131.766 18.8778 131.766 19.2756C131.766 19.8438 131.974 20.2727 132.388 20.5625C132.803 20.8523 133.332 20.9972 133.974 20.9972ZM146.272 5.54545V23H143.187V5.54545H146.272ZM152.53 5.54545V23H149.445V5.54545H152.53ZM71.7727 35H70.3636C70.2803 34.5947 70.1345 34.2386 69.9261 33.9318C69.7216 33.625 69.4716 33.3674 69.1761 33.1591C68.8845 32.947 68.5606 32.7879 68.2045 32.6818C67.8485 32.5758 67.4773 32.5227 67.0909 32.5227C66.3864 32.5227 65.7481 32.7008 65.1761 33.0568C64.608 33.4129 64.1553 33.9375 63.8182 34.6307C63.4848 35.3239 63.3182 36.1742 63.3182 37.1818C63.3182 38.1894 63.4848 39.0398 63.8182 39.733C64.1553 40.4261 64.608 40.9508 65.1761 41.3068C65.7481 41.6629 66.3864 41.8409 67.0909 41.8409C67.4773 41.8409 67.8485 41.7879 68.2045 41.6818C68.5606 41.5758 68.8845 41.4186 69.1761 41.2102C69.4716 40.9981 69.7216 40.7386 69.9261 40.4318C70.1345 40.1212 70.2803 39.7652 70.3636 39.3636H71.7727C71.6667 39.9583 71.4735 40.4905 71.1932 40.9602C70.9129 41.4299 70.5644 41.8295 70.1477 42.1591C69.7311 42.4848 69.2633 42.733 68.7443 42.9034C68.2292 43.0739 67.678 43.1591 67.0909 43.1591C66.0985 43.1591 65.2159 42.9167 64.4432 42.4318C63.6705 41.947 63.0625 41.2576 62.6193 40.3636C62.1761 39.4697 61.9545 38.4091 61.9545 37.1818C61.9545 35.9545 62.1761 34.8939 62.6193 34C63.0625 33.1061 63.6705 32.4167 64.4432 31.9318C65.2159 31.447 66.0985 31.2045 67.0909 31.2045C67.678 31.2045 68.2292 31.2898 68.7443 31.4602C69.2633 31.6307 69.7311 31.8807 70.1477 32.2102C70.5644 32.536 70.9129 32.9337 71.1932 33.4034C71.4735 33.8693 71.6667 34.4015 71.7727 35ZM82.4361 43.2045C81.883 43.2045 81.3812 43.1004 80.9304 42.892C80.4796 42.6799 80.1217 42.375 79.8565 41.9773C79.5914 41.5758 79.4588 41.0909 79.4588 40.5227C79.4588 40.0227 79.5573 39.6174 79.7543 39.3068C79.9512 38.9924 80.2145 38.7462 80.544 38.5682C80.8736 38.3902 81.2372 38.2576 81.6349 38.1705C82.0365 38.0795 82.4399 38.0076 82.8452 37.9545C83.3755 37.8864 83.8054 37.8352 84.1349 37.8011C84.4683 37.7633 84.7107 37.7008 84.8622 37.6136C85.0175 37.5265 85.0952 37.375 85.0952 37.1591V37.1136C85.0952 36.553 84.9418 36.1174 84.6349 35.8068C84.3319 35.4962 83.8717 35.3409 83.2543 35.3409C82.6141 35.3409 82.1122 35.4811 81.7486 35.7614C81.3849 36.0417 81.1293 36.3409 80.9815 36.6591L79.7088 36.2045C79.9361 35.6742 80.2391 35.2614 80.6179 34.9659C81.0005 34.6667 81.4171 34.4583 81.8679 34.3409C82.3224 34.2197 82.7694 34.1591 83.2088 34.1591C83.4891 34.1591 83.8111 34.1932 84.1747 34.2614C84.5421 34.3258 84.8963 34.4602 85.2372 34.6648C85.5819 34.8693 85.8679 35.178 86.0952 35.5909C86.3224 36.0038 86.4361 36.5568 86.4361 37.25V43H85.0952V41.8182H85.027C84.9361 42.0076 84.7846 42.2102 84.5724 42.4261C84.3603 42.642 84.0781 42.8258 83.7259 42.9773C83.3736 43.1288 82.9437 43.2045 82.4361 43.2045ZM82.6406 42C83.1709 42 83.6179 41.8958 83.9815 41.6875C84.349 41.4792 84.6255 41.2102 84.8111 40.8807C85.0005 40.5511 85.0952 40.2045 85.0952 39.8409V38.6136C85.0384 38.6818 84.9134 38.7443 84.7202 38.8011C84.5308 38.8542 84.3111 38.9015 84.0611 38.9432C83.8149 38.9811 83.5743 39.0152 83.3395 39.0455C83.1084 39.072 82.9209 39.0947 82.777 39.1136C82.4285 39.1591 82.1027 39.233 81.7997 39.3352C81.5005 39.4337 81.258 39.5833 81.0724 39.7841C80.8906 39.9811 80.7997 40.25 80.7997 40.5909C80.7997 41.0568 80.9721 41.4091 81.3168 41.6477C81.6652 41.8826 82.1065 42 82.6406 42ZM94.8835 43V34.2727H96.179V35.5909H96.2699C96.429 35.1591 96.7169 34.8087 97.1335 34.5398C97.5502 34.2708 98.0199 34.1364 98.5426 34.1364C98.6411 34.1364 98.7642 34.1383 98.9119 34.142C99.0597 34.1458 99.1714 34.1515 99.2472 34.1591V35.5227C99.2017 35.5114 99.0975 35.4943 98.9347 35.4716C98.7756 35.4451 98.607 35.4318 98.429 35.4318C98.0047 35.4318 97.6259 35.5208 97.2926 35.6989C96.9631 35.8731 96.7017 36.1155 96.5085 36.4261C96.3191 36.733 96.2244 37.0833 96.2244 37.4773V43H94.8835ZM110.23 43.1818C109.389 43.1818 108.664 42.9962 108.054 42.625C107.448 42.25 106.98 41.7273 106.651 41.0568C106.325 40.3826 106.162 39.5985 106.162 38.7045C106.162 37.8106 106.325 37.0227 106.651 36.3409C106.98 35.6553 107.438 35.1212 108.026 34.7386C108.616 34.3523 109.306 34.1591 110.094 34.1591C110.548 34.1591 110.997 34.2348 111.44 34.3864C111.884 34.5379 112.287 34.7841 112.651 35.125C113.014 35.4621 113.304 35.9091 113.52 36.4659C113.736 37.0227 113.844 37.7083 113.844 38.5227V39.0909H107.116V37.9318H112.48C112.48 37.4394 112.382 37 112.185 36.6136C111.991 36.2273 111.715 35.9223 111.355 35.6989C110.999 35.4754 110.579 35.3636 110.094 35.3636C109.56 35.3636 109.098 35.4962 108.707 35.7614C108.321 36.0227 108.024 36.3636 107.815 36.7841C107.607 37.2045 107.503 37.6553 107.503 38.1364V38.9091C107.503 39.5682 107.616 40.1269 107.844 40.5852C108.075 41.0398 108.395 41.3864 108.804 41.625C109.213 41.8598 109.688 41.9773 110.23 41.9773C110.582 41.9773 110.901 41.928 111.185 41.8295C111.473 41.7273 111.721 41.5758 111.929 41.375C112.137 41.1705 112.298 40.9167 112.412 40.6136L113.707 40.9773C113.571 41.4167 113.342 41.803 113.02 42.1364C112.698 42.4659 112.3 42.7235 111.827 42.9091C111.353 43.0909 110.821 43.1818 110.23 43.1818ZM125.543 43.1818C124.702 43.1818 123.976 42.9962 123.366 42.625C122.76 42.25 122.293 41.7273 121.963 41.0568C121.637 40.3826 121.474 39.5985 121.474 38.7045C121.474 37.8106 121.637 37.0227 121.963 36.3409C122.293 35.6553 122.751 35.1212 123.338 34.7386C123.929 34.3523 124.618 34.1591 125.406 34.1591C125.861 34.1591 126.31 34.2348 126.753 34.3864C127.196 34.5379 127.599 34.7841 127.963 35.125C128.327 35.4621 128.616 35.9091 128.832 36.4659C129.048 37.0227 129.156 37.7083 129.156 38.5227V39.0909H122.429V37.9318H127.793C127.793 37.4394 127.694 37 127.497 36.6136C127.304 36.2273 127.027 35.9223 126.668 35.6989C126.312 35.4754 125.891 35.3636 125.406 35.3636C124.872 35.3636 124.41 35.4962 124.02 35.7614C123.634 36.0227 123.336 36.3636 123.128 36.7841C122.92 37.2045 122.815 37.6553 122.815 38.1364V38.9091C122.815 39.5682 122.929 40.1269 123.156 40.5852C123.387 41.0398 123.707 41.3864 124.116 41.625C124.526 41.8598 125.001 41.9773 125.543 41.9773C125.895 41.9773 126.213 41.928 126.497 41.8295C126.785 41.7273 127.033 41.5758 127.241 41.375C127.45 41.1705 127.611 40.9167 127.724 40.6136L129.02 40.9773C128.884 41.4167 128.654 41.803 128.332 42.1364C128.01 42.4659 127.613 42.7235 127.139 42.9091C126.666 43.0909 126.134 43.1818 125.543 43.1818ZM137.196 43V34.2727H138.491V35.5909H138.582C138.741 35.1591 139.029 34.8087 139.446 34.5398C139.863 34.2708 140.332 34.1364 140.855 34.1364C140.954 34.1364 141.077 34.1383 141.224 34.142C141.372 34.1458 141.484 34.1515 141.56 34.1591V35.5227C141.514 35.5114 141.41 35.4943 141.247 35.4716C141.088 35.4451 140.92 35.4318 140.741 35.4318C140.317 35.4318 139.938 35.5208 139.605 35.6989C139.276 35.8731 139.014 36.1155 138.821 36.4261C138.632 36.733 138.537 37.0833 138.537 37.4773V43H137.196ZM155.331 36.2273L154.126 36.5682C154.051 36.3674 153.939 36.1723 153.791 35.983C153.647 35.7898 153.45 35.6307 153.2 35.5057C152.95 35.3807 152.63 35.3182 152.24 35.3182C151.706 35.3182 151.261 35.4413 150.905 35.6875C150.553 35.9299 150.376 36.2386 150.376 36.6136C150.376 36.947 150.498 37.2102 150.74 37.4034C150.982 37.5966 151.361 37.7576 151.876 37.8864L153.172 38.2045C153.952 38.3939 154.534 38.6837 154.916 39.0739C155.299 39.4602 155.49 39.9583 155.49 40.5682C155.49 41.0682 155.346 41.5152 155.058 41.9091C154.774 42.303 154.376 42.6136 153.865 42.8409C153.354 43.0682 152.759 43.1818 152.081 43.1818C151.191 43.1818 150.454 42.9886 149.871 42.6023C149.287 42.2159 148.918 41.6515 148.763 40.9091L150.036 40.5909C150.157 41.0606 150.386 41.4129 150.723 41.6477C151.064 41.8826 151.509 42 152.058 42C152.683 42 153.179 41.8674 153.547 41.6023C153.918 41.3333 154.104 41.0114 154.104 40.6364C154.104 40.3333 153.998 40.0795 153.786 39.875C153.573 39.6667 153.248 39.5114 152.808 39.4091L151.354 39.0682C150.554 38.8788 149.967 38.5852 149.592 38.1875C149.221 37.786 149.036 37.2841 149.036 36.6818C149.036 36.1894 149.174 35.7538 149.45 35.375C149.731 34.9962 150.111 34.6989 150.592 34.483C151.077 34.267 151.626 34.1591 152.24 34.1591C153.104 34.1591 153.782 34.3485 154.274 34.7273C154.77 35.1061 155.123 35.6061 155.331 36.2273Z" fill="white"/>
<defs>
<clipPath id="clip0_1_81">
<path d="M4.5 5H46.5V46H4.5V5Z" fill="white"/>
</clipPath>
</defs>
</svg>
