<svg width="105" height="50" viewBox="0 0 105 50" fill="none" xmlns="http://www.w3.org/2000/svg">
<line x1="1" y1="24" x2="44" y2="24" stroke="#DEDEDE" stroke-width="2" stroke-linecap="round"/>
<circle cx="80" cy="25" r="25" fill="black" fill-opacity="0.1"/>
<mask id="mask0_1_1108" style="mask-type:alpha" maskUnits="userSpaceOnUse" x="68" y="13" width="24" height="24">
<rect x="68" y="13" width="24" height="24" fill="#D9D9D9"/>
</mask>
<g mask="url(#mask0_1_1108)">
<path d="M75.625 19.4L78.425 15.775C78.625 15.5083 78.8625 15.3125 79.1375 15.1875C79.4125 15.0625 79.7 15 80 15C80.3 15 80.5875 15.0625 80.8625 15.1875C81.1375 15.3125 81.375 15.5083 81.575 15.775L84.375 19.4L88.625 20.825C89.0583 20.9583 89.4 21.2042 89.65 21.5625C89.9 21.9208 90.025 22.3167 90.025 22.75C90.025 22.95 89.9958 23.15 89.9375 23.35C89.8792 23.55 89.7833 23.7417 89.65 23.925L86.9 27.825L87 31.925C87.0167 32.5083 86.825 33 86.425 33.4C86.025 33.8 85.5583 34 85.025 34C84.9917 34 84.8083 33.975 84.475 33.925L80 32.675L75.525 33.925C75.4417 33.9583 75.35 33.9792 75.25 33.9875C75.15 33.9958 75.0583 34 74.975 34C74.4417 34 73.975 33.8 73.575 33.4C73.175 33 72.9833 32.5083 73 31.925L73.1 27.8L70.375 23.925C70.2417 23.7417 70.1458 23.55 70.0875 23.35C70.0292 23.15 70 22.95 70 22.75C70 22.3333 70.1208 21.9458 70.3625 21.5875C70.6042 21.2292 70.9417 20.975 71.375 20.825L75.625 19.4ZM76.85 21.125L72 22.725L75.1 27.2L75 31.975L80 30.6L85 32L84.9 27.2L88 22.775L83.15 21.125L80 17L76.85 21.125Z" fill="#636363"/>
</g>
</svg>
