<svg width="105" height="50" viewBox="0 0 105 50" fill="none" xmlns="http://www.w3.org/2000/svg">
<line x1="1" y1="24" x2="44" y2="24" stroke="#DEDEDE" stroke-width="2" stroke-linecap="round"/>
<circle cx="80" cy="25" r="25" fill="black" fill-opacity="0.1"/>
<mask id="mask0_1_1120" style="mask-type:alpha" maskUnits="userSpaceOnUse" x="68" y="13" width="24" height="24">
<rect x="68" y="13" width="24" height="24" fill="#D9D9D9"/>
</mask>
<g mask="url(#mask0_1_1120)">
<path d="M76.8 23.95L78.95 21.775L77.55 20.35L76.45 21.45L75.05 20.05L76.125 18.95L75 17.825L72.825 20L76.8 23.95ZM85 32.175L87.175 30L86.05 28.875L84.95 29.95L83.55 28.55L84.625 27.45L83.2 26.05L81.05 28.2L85 32.175ZM75.25 34H71V29.75L75.375 25.375L70 20L75 15L80.4 20.4L84.175 16.6C84.375 16.4 84.6 16.25 84.85 16.15C85.1 16.05 85.3583 16 85.625 16C85.8917 16 86.15 16.05 86.4 16.15C86.65 16.25 86.875 16.4 87.075 16.6L88.4 17.95C88.6 18.15 88.75 18.375 88.85 18.625C88.95 18.875 89 19.1333 89 19.4C89 19.6667 88.95 19.9208 88.85 20.1625C88.75 20.4042 88.6 20.625 88.4 20.825L84.625 24.625L90 30L85 35L79.625 29.625L75.25 34ZM73 32H74.4L84.2 22.225L82.775 20.8L73 30.6V32Z" fill="#636363"/>
</g>
</svg>
