<svg width="100" height="100" viewBox="0 0 100 100" fill="none" xmlns="http://www.w3.org/2000/svg">
<rect width="100" height="100" rx="50" fill="white"/>
<g clip-path="url(#clip0_1_116)">
<path d="M72.0527 64.2324L62.2637 63.5762C61.5527 63.5352 60.8555 63.7266 60.2812 64.1504C59.707 64.5742 59.2969 65.1621 59.1328 65.8594L56.7266 75.375C54.5801 75.9492 52.3242 76.25 50 76.25C47.6758 76.25 45.4199 75.9492 43.2734 75.375L40.8672 65.8594C40.6895 65.1758 40.2793 64.5742 39.7188 64.1504C39.1582 63.7266 38.4473 63.5352 37.7363 63.5762L27.9473 64.2324C25.541 60.5137 24.0508 56.1387 23.791 51.4355L32.0898 46.2129C32.6914 45.8301 33.1289 45.2559 33.3477 44.5859C33.5664 43.916 33.5391 43.1914 33.2793 42.5352L29.6289 33.4297C32.5 29.9297 36.2324 27.168 40.5254 25.5137L48.0723 31.8027C48.6191 32.2539 49.3027 32.5 50 32.5C50.6973 32.5 51.3945 32.2539 51.9277 31.8027L59.4746 25.5137C63.7539 27.168 67.5 29.9297 70.3574 33.4297L66.707 42.5352C66.4473 43.1914 66.4199 43.916 66.6387 44.5859C66.8574 45.2559 67.3086 45.8301 67.8965 46.2129L76.1953 51.4355C75.9355 56.1387 74.4453 60.5137 72.0391 64.2324H72.0527ZM50 85C59.2826 85 68.185 81.3125 74.7487 74.7487C81.3125 68.185 85 59.2826 85 50C85 40.7174 81.3125 31.815 74.7487 25.2513C68.185 18.6875 59.2826 15 50 15C40.7174 15 31.815 18.6875 25.2513 25.2513C18.6875 31.815 15 40.7174 15 50C15 59.2826 18.6875 68.185 25.2513 74.7487C31.815 81.3125 40.7174 85 50 85ZM51.9277 40.4707C50.7793 39.6367 49.2207 39.6367 48.0723 40.4707L41.5234 45.2148C40.375 46.0488 39.8965 47.5254 40.334 48.8789L42.8359 56.5762C43.2734 57.9297 44.5312 58.8457 45.9531 58.8457H54.0469C55.4688 58.8457 56.7266 57.9297 57.1641 56.5762L59.666 48.8789C60.1035 47.5254 59.625 46.0488 58.4766 45.2148L51.9277 40.457V40.4707Z" fill="#1E7F3E"/>
</g>
<defs>
<clipPath id="clip0_1_116">
<path d="M15 15H85V85H15V15Z" fill="white"/>
</clipPath>
</defs>
</svg>
