<svg width="166" height="50" viewBox="0 0 166 50" fill="none" xmlns="http://www.w3.org/2000/svg">
<circle cx="25" cy="25" r="25" fill="#1E7F3E"/>
<line x1="61" y1="24" x2="105" y2="24" stroke="#DEDEDE" stroke-width="2" stroke-linecap="round"/>
<circle cx="141" cy="25" r="25" fill="black" fill-opacity="0.1"/>
<mask id="mask0_1_1098" style="mask-type:alpha" maskUnits="userSpaceOnUse" x="13" y="13" width="24" height="24">
<rect x="13" y="13" width="24" height="24" fill="#D9D9D9"/>
</mask>
<g mask="url(#mask0_1_1098)">
<path d="M25 25C23.9 25 22.9583 24.6083 22.175 23.825C21.3917 23.0417 21 22.1 21 21C21 19.9 21.3917 18.9583 22.175 18.175C22.9583 17.3917 23.9 17 25 17C26.1 17 27.0417 17.3917 27.825 18.175C28.6083 18.9583 29 19.9 29 21C29 22.1 28.6083 23.0417 27.825 23.825C27.0417 24.6083 26.1 25 25 25ZM17 33V30.2C17 29.6333 17.1458 29.1125 17.4375 28.6375C17.7292 28.1625 18.1167 27.8 18.6 27.55C19.6333 27.0333 20.6833 26.6458 21.75 26.3875C22.8167 26.1292 23.9 26 25 26C26.1 26 27.1833 26.1292 28.25 26.3875C29.3167 26.6458 30.3667 27.0333 31.4 27.55C31.8833 27.8 32.2708 28.1625 32.5625 28.6375C32.8542 29.1125 33 29.6333 33 30.2V33H17ZM19 31H31V30.2C31 30.0167 30.9542 29.85 30.8625 29.7C30.7708 29.55 30.65 29.4333 30.5 29.35C29.6 28.9 28.6917 28.5625 27.775 28.3375C26.8583 28.1125 25.9333 28 25 28C24.0667 28 23.1417 28.1125 22.225 28.3375C21.3083 28.5625 20.4 28.9 19.5 29.35C19.35 29.4333 19.2292 29.55 19.1375 29.7C19.0458 29.85 19 30.0167 19 30.2V31ZM25 23C25.55 23 26.0208 22.8042 26.4125 22.4125C26.8042 22.0208 27 21.55 27 21C27 20.45 26.8042 19.9792 26.4125 19.5875C26.0208 19.1958 25.55 19 25 19C24.45 19 23.9792 19.1958 23.5875 19.5875C23.1958 19.9792 23 20.45 23 21C23 21.55 23.1958 22.0208 23.5875 22.4125C23.9792 22.8042 24.45 23 25 23Z" fill="white"/>
</g>
<mask id="mask1_1_1098" style="mask-type:alpha" maskUnits="userSpaceOnUse" x="129" y="13" width="24" height="24">
<rect x="129" y="13" width="24" height="24" fill="#D9D9D9"/>
</mask>
<g mask="url(#mask1_1_1098)">
<path d="M141 24C141.55 24 142.021 23.8042 142.413 23.4125C142.804 23.0208 143 22.55 143 22C143 21.45 142.804 20.9792 142.413 20.5875C142.021 20.1958 141.55 20 141 20C140.45 20 139.979 20.1958 139.588 20.5875C139.196 20.9792 139 21.45 139 22C139 22.55 139.196 23.0208 139.588 23.4125C139.979 23.8042 140.45 24 141 24ZM136 34V32H140V28.9C139.183 28.7167 138.454 28.3708 137.812 27.8625C137.171 27.3542 136.7 26.7167 136.4 25.95C135.15 25.8 134.104 25.2542 133.263 24.3125C132.421 23.3708 132 22.2667 132 21V20C132 19.45 132.196 18.9792 132.588 18.5875C132.979 18.1958 133.45 18 134 18H136V16H146V18H148C148.55 18 149.021 18.1958 149.413 18.5875C149.804 18.9792 150 19.45 150 20V21C150 22.2667 149.579 23.3708 148.738 24.3125C147.896 25.2542 146.85 25.8 145.6 25.95C145.3 26.7167 144.829 27.3542 144.188 27.8625C143.546 28.3708 142.817 28.7167 142 28.9V32H146V34H136ZM136 23.8V20H134V21C134 21.6333 134.183 22.2042 134.55 22.7125C134.917 23.2208 135.4 23.5833 136 23.8ZM141 27C141.833 27 142.542 26.7083 143.125 26.125C143.708 25.5417 144 24.8333 144 24V18H138V24C138 24.8333 138.292 25.5417 138.875 26.125C139.458 26.7083 140.167 27 141 27ZM146 23.8C146.6 23.5833 147.083 23.2208 147.45 22.7125C147.817 22.2042 148 21.6333 148 21V20H146V23.8Z" fill="#636363"/>
</g>
</svg>
