<svg width="34" height="34" viewBox="0 0 34 34" fill="none" xmlns="http://www.w3.org/2000/svg">
<path d="M16.6667 30.4583C15.7117 30.4583 14.8943 30.1204 14.2146 29.4446C13.5346 28.7685 13.1946 27.9532 13.1946 26.9988C13.1946 26.0443 13.5346 25.2272 14.2146 24.5475C14.8943 23.8678 15.7117 23.5279 16.6667 23.5279L17.6875 22.5488C17.9144 22.3218 18.1797 22.1413 18.4833 22.0071C18.7872 21.8726 19.0983 21.8054 19.4167 21.8054C20.0925 21.8054 20.6643 22.0463 21.1321 22.5279C21.5996 23.0093 21.8333 23.5854 21.8333 24.2563V25C21.8333 25.5556 22.0278 26.0278 22.4167 26.4167C22.8056 26.8056 23.2778 27 23.8333 27C24.265 27 24.6533 26.8699 24.9983 26.6096C25.3436 26.3493 25.5882 26.0168 25.7321 25.6121L26.25 24.1804C26.5 23.4768 26.9124 22.9049 27.4871 22.4646C28.0618 22.0243 28.7229 21.8042 29.4704 21.8042C29.7865 21.0089 30.0349 20.176 30.2154 19.3054C30.396 18.4351 30.4863 17.5463 30.4863 16.6388C30.4863 14.074 29.8496 11.7431 28.5763 9.64583C27.3032 7.54861 25.6296 5.88889 23.5554 4.66667V6.27792C23.5554 7.22514 23.2182 8.03597 22.5438 8.71042C21.8693 9.38486 21.0585 9.72208 20.1113 9.72208H18.3888V13.1946C18.3888 13.6668 18.2199 14.0718 17.8821 14.4096C17.544 14.7476 17.1389 14.9167 16.6667 14.9167H14.9446V17.8338C14.9446 18.4632 14.7282 18.9954 14.2954 19.4304C13.8626 19.8657 13.329 20.0833 12.6946 20.0833C12.3057 20.0833 11.9422 19.9954 11.6042 19.8196C11.2661 19.6435 10.9907 19.4026 10.7779 19.0971L8.02542 14.9167H6.30542V16.6304C6.30542 17.5157 6.00917 18.2778 5.41667 18.9167C4.82417 19.5556 4.10653 19.9306 3.26375 20.0417C4.0232 23.0231 5.64361 25.5046 8.125 27.4863C10.6064 29.4676 13.4536 30.4583 16.6667 30.4583ZM20.1238 20.0833C19.6432 20.0833 19.2339 19.9143 18.8958 19.5763C18.5578 19.2385 18.3888 18.8335 18.3888 18.3613C18.3888 17.889 18.5578 17.4839 18.8958 17.1458C19.2339 16.8078 19.6432 16.6388 20.1238 16.6388H21.8204C22.3013 16.6388 22.7107 16.8078 23.0488 17.1458C23.3865 17.4839 23.5554 17.889 23.5554 18.3613C23.5554 18.8335 23.3865 19.2385 23.0488 19.5763C22.7107 19.9143 22.3013 20.0833 21.8204 20.0833H20.1238ZM24.1358 14.9167C23.5731 14.9167 23.1181 14.6921 22.7708 14.2429C22.4236 13.794 22.3386 13.2972 22.5158 12.7525L23.1804 10.8613C23.3101 10.5093 23.5157 10.2315 23.7971 10.0279C24.0785 9.82403 24.3879 9.72208 24.7254 9.72208C25.2882 9.72208 25.7432 9.94667 26.0904 10.3958C26.4376 10.845 26.5226 11.3418 26.3454 11.8863L25.6804 13.7779C25.551 14.1296 25.3456 14.4074 25.0642 14.6113C24.7828 14.8149 24.4733 14.9167 24.1358 14.9167ZM16.6742 33.3333C14.3733 33.3333 12.2113 32.8958 10.1879 32.0208C8.16459 31.1458 6.3982 29.9538 4.88875 28.4446C3.37958 26.9351 2.1875 25.1681 1.3125 23.1433C0.4375 21.1186 0 18.9551 0 16.6529C0 14.3507 0.4375 12.1871 1.3125 10.1621C2.1875 8.13736 3.37958 6.375 4.88875 4.875C6.3982 3.375 8.16528 2.1875 10.19 1.3125C12.2147 0.4375 14.3782 0 16.6804 0C18.9826 0 21.1463 0.4375 23.1713 1.3125C25.196 2.1875 26.9583 3.375 28.4583 4.875C29.9583 6.375 31.1458 8.13889 32.0208 10.1667C32.8958 12.1944 33.3333 14.3586 33.3333 16.6592C33.3333 18.96 32.8958 21.1221 32.0208 23.1454C31.1458 25.1688 29.9583 26.9333 28.4583 28.4392C26.9583 29.945 25.1944 31.1372 23.1667 32.0158C21.1389 32.8942 18.9747 33.3333 16.6742 33.3333Z" fill="white"/>
</svg>
