<svg width="37" height="34" viewBox="0 0 37 34" fill="none" xmlns="http://www.w3.org/2000/svg">
<path d="M18.1266 30.5275C18.2563 30.5275 18.3998 30.4951 18.557 30.4304C18.7145 30.3657 18.8395 30.2869 18.932 30.1942L32.8487 16.25C33.2006 15.8981 33.4623 15.4983 33.6337 15.0508C33.8048 14.6033 33.8904 14.1558 33.8904 13.7083C33.8904 13.2453 33.8048 12.7892 33.6337 12.34C33.4623 11.8911 33.2006 11.4953 32.8487 11.1525L25.4879 3.79167C25.1451 3.43972 24.7492 3.17806 24.3004 3.00667C23.8512 2.83556 23.3951 2.75 22.932 2.75C22.4845 2.75 22.037 2.83556 21.5895 3.00667C21.142 3.17806 20.7423 3.43972 20.3904 3.79167L19.7379 4.44417L23.0154 7.76375C23.3951 8.15264 23.7099 8.60167 23.9599 9.11084C24.2099 9.62028 24.3349 10.1713 24.3349 10.7638C24.3349 11.8563 23.9298 12.8031 23.1195 13.6042C22.3095 14.405 21.3581 14.8054 20.2654 14.8054C19.6173 14.8054 19.0548 14.7036 18.5779 14.5C18.1012 14.2961 17.6713 14.0013 17.2883 13.6154L14.2099 10.5554L6.7516 18.0138C6.63133 18.134 6.54563 18.2615 6.49452 18.3963C6.44369 18.5313 6.41827 18.6757 6.41827 18.8296C6.41827 19.1376 6.5248 19.4004 6.73785 19.6179C6.95063 19.8354 7.21133 19.9442 7.51994 19.9442C7.67438 19.9442 7.82105 19.9072 7.95994 19.8333C8.09883 19.7592 8.21452 19.6758 8.30702 19.5833L14.0295 13.8608L15.9737 15.8054L10.2933 21.5C10.173 21.6203 10.0873 21.7522 10.0362 21.8958C9.98535 22.0392 9.95994 22.185 9.95994 22.3333C9.95994 22.6294 10.071 22.8886 10.2933 23.1108C10.5155 23.3331 10.7748 23.4442 11.0712 23.4442C11.2192 23.4442 11.3627 23.4118 11.5016 23.3471C11.6405 23.2824 11.7562 23.2036 11.8487 23.1108L17.5712 17.4025L19.5154 19.3471L13.8349 25.0417C13.733 25.1342 13.652 25.2576 13.592 25.4121C13.5317 25.5663 13.5016 25.7206 13.5016 25.875C13.5016 26.1711 13.6127 26.4303 13.8349 26.6525C14.0572 26.8747 14.3165 26.9858 14.6129 26.9858C14.7609 26.9858 14.8974 26.9604 15.0224 26.9096C15.1474 26.8588 15.2701 26.7731 15.3904 26.6525L21.1129 20.9442L23.057 22.8888L17.3349 28.6108C17.2147 28.7314 17.129 28.8633 17.0779 29.0067C17.027 29.1503 17.0016 29.2869 17.0016 29.4167C17.0016 29.75 17.1058 30.0185 17.3141 30.2221C17.5224 30.4257 17.7933 30.5275 18.1266 30.5275ZM18.1145 33.3054C17.1595 33.3054 16.3094 32.9651 15.5641 32.2846C14.8188 31.604 14.3767 30.7581 14.2379 29.7467C13.2934 29.61 12.5017 29.2222 11.8629 28.5833C11.224 27.9444 10.8351 27.1528 10.6962 26.2083C9.75174 26.0694 8.96702 25.6736 8.34202 25.0208C7.71702 24.3681 7.33507 23.5833 7.19619 22.6667C6.15896 22.5278 5.30702 22.0972 4.64035 21.375C3.97369 20.6528 3.64035 19.7917 3.64035 18.7917C3.64035 18.2917 3.73744 17.7981 3.9316 17.3108C4.12549 16.8239 4.40341 16.3961 4.76535 16.0275L14.2099 6.59708L19.0849 11.4721C19.2516 11.6479 19.4399 11.7844 19.6499 11.8817C19.8597 11.9789 20.0695 12.0275 20.2795 12.0275C20.6034 12.0275 20.8997 11.8956 21.1683 11.6317C21.4369 11.3678 21.5712 11.0724 21.5712 10.7454C21.5712 10.6001 21.5317 10.4396 21.4529 10.2638C21.3742 10.0879 21.247 9.91667 21.0712 9.75L15.1129 3.79167C14.7701 3.43972 14.3742 3.17806 13.9254 3.00667C13.4762 2.83556 13.0201 2.75 12.557 2.75C12.1095 2.75 11.662 2.83556 11.2145 3.00667C10.767 3.17806 10.3679 3.43833 10.017 3.7875L3.83494 9.98584C3.49244 10.3286 3.24244 10.699 3.08494 11.0971C2.92744 11.4951 2.83021 11.9303 2.79327 12.4025C2.75633 12.8747 2.82577 13.34 3.0016 13.7983C3.17744 14.2567 3.40424 14.6757 3.68202 15.0554L1.68202 17.0554C1.15424 16.4351 0.737575 15.7106 0.43202 14.8817C0.126464 14.0531 -0.0170084 13.2128 0.00160276 12.3608C0.0202139 11.5461 0.191464 10.7614 0.515353 10.0067C0.83952 9.25222 1.29327 8.58333 1.8766 8L8.02952 1.84708C8.65896 1.22681 9.36771 0.763889 10.1558 0.458333C10.9435 0.152778 11.7513 0 12.5791 0C13.4072 0 14.2123 0.152778 14.9945 0.458333C15.777 0.763889 16.4784 1.22681 17.0987 1.84708L17.7516 2.5L18.4045 1.84708C19.034 1.22681 19.7427 0.763889 20.5308 0.458333C21.3185 0.152778 22.1263 0 22.9541 0C23.7822 0 24.5873 0.152778 25.3695 0.458333C26.152 0.763889 26.8534 1.22681 27.4737 1.84708L34.7933 9.16667C35.4135 9.78695 35.8812 10.4956 36.1962 11.2925C36.5109 12.0894 36.6683 12.8996 36.6683 13.7229C36.6683 14.5465 36.5109 15.3494 36.1962 16.1317C35.8812 16.9142 35.4135 17.6156 34.7933 18.2358L20.8766 32.1388C20.5063 32.509 20.0824 32.7961 19.6049 33C19.1274 33.2036 18.6306 33.3054 18.1145 33.3054Z" fill="white"/>
</svg>
