<svg width="20" height="20" viewBox="0 0 20 20" fill="none" xmlns="http://www.w3.org/2000/svg">
<mask id="mask0_1_1031" style="mask-type:alpha" maskUnits="userSpaceOnUse" x="0" y="0" width="20" height="20">
<rect width="20" height="20" fill="#D9D9D9"/>
</mask>
<g mask="url(#mask0_1_1031)">
<path d="M10.0044 10C10.4181 10 10.7708 9.85271 11.0625 9.55813C11.3542 9.26354 11.5 8.90937 11.5 8.49562C11.5 8.08187 11.3527 7.72917 11.0581 7.4375C10.7635 7.14583 10.4094 7 9.99563 7C9.58188 7 9.22917 7.14729 8.9375 7.44188C8.64583 7.73646 8.5 8.09063 8.5 8.50438C8.5 8.91813 8.64729 9.27083 8.94187 9.5625C9.23646 9.85417 9.59062 10 10.0044 10ZM10 16.0208C11.6528 14.5347 12.8993 13.1667 13.7396 11.9167C14.5799 10.6667 15 9.54861 15 8.5625C15 7.10417 14.5243 5.89583 13.5729 4.9375C12.6215 3.97917 11.4306 3.5 10 3.5C8.56944 3.5 7.37847 3.97917 6.42708 4.9375C5.47569 5.89583 5 7.10417 5 8.5625C5 9.54861 5.42014 10.6667 6.26042 11.9167C7.10069 13.1667 8.34722 14.5347 10 16.0208ZM10 18C7.81986 16.179 6.19146 14.4877 5.11479 12.926C4.03826 11.3642 3.5 9.90972 3.5 8.5625C3.5 6.70139 4.11806 5.14236 5.35417 3.88542C6.59028 2.62847 8.13542 2 9.98958 2C11.8438 2 13.3924 2.62847 14.6354 3.88542C15.8785 5.14236 16.5 6.70139 16.5 8.5625C16.5 9.90972 15.9653 11.3611 14.8958 12.9167C13.8264 14.4722 12.1944 16.1667 10 18Z" fill="#1C1B1F"/>
</g>
</svg>
